<?xml version="1.0" encoding="UTF-8"?>
<!DOCTYPE svg PUBLIC "-//W3C//DTD SVG 1.1//EN" "http://www.w3.org/Graphics/SVG/1.1/DTD/svg11.dtd">
<svg xmlns="http://www.w3.org/2000/svg" version="1.1" width="524px" height="476px" style="shape-rendering:geometricPrecision; text-rendering:geometricPrecision; image-rendering:optimizeQuality; fill-rule:evenodd; clip-rule:evenodd" xmlns:xlink="http://www.w3.org/1999/xlink">
<g><path style="opacity:0.043" fill="#ceb692" d="M 271.5,44.5 C 278.508,44.3337 285.508,44.5004 292.5,45C 295.106,49.3995 295.106,53.7328 292.5,58C 287.177,58.4994 281.844,58.666 276.5,58.5C 281.368,57.7875 286.368,57.1208 291.5,56.5C 294.109,52.9746 294.109,49.4746 291.5,46C 284.654,45.8283 277.987,45.3283 271.5,44.5 Z"/></g>
<g><path style="opacity:0.475" fill="#caa17e" d="M 257.5,44.5 C 252.015,45.3272 246.348,45.8272 240.5,46C 237.379,46.7876 235.712,48.7876 235.5,52C 235.354,54.0342 236.02,55.7009 237.5,57C 241.61,56.2788 245.61,56.4455 249.5,57.5C 245.168,58.0965 240.835,58.2632 236.5,58C 234.234,54.4217 233.9,50.5883 235.5,46.5C 236.376,45.7492 237.376,45.2492 238.5,45C 244.825,44.5005 251.158,44.3338 257.5,44.5 Z"/></g>
<g><path style="opacity:0.929" fill="#ad8341" d="M 271.5,44.5 C 277.987,45.3283 284.654,45.8283 291.5,46C 294.109,49.4746 294.109,52.9746 291.5,56.5C 286.368,57.1208 281.368,57.7875 276.5,58.5C 274.833,58.5 273.167,58.5 271.5,58.5C 271.751,61.909 271.417,65.2423 270.5,68.5C 273.381,72.9091 273.047,76.9091 269.5,80.5C 268.5,80.5 267.5,80.5 266.5,80.5C 266.916,85.4932 267.249,90.4932 267.5,95.5C 266.833,94.8333 266.167,94.1667 265.5,93.5C 265.795,91.2646 265.461,89.2646 264.5,87.5C 264.66,85.8008 264.494,84.1341 264,82.5C 263.517,83.448 263.351,84.448 263.5,85.5C 262.833,86.5 262.167,87.5 261.5,88.5C 261.663,86.1432 261.497,83.8098 261,81.5C 258.148,80.3037 256.648,78.137 256.5,75C 258.492,69.5904 258.825,64.0904 257.5,58.5C 254.916,57.6072 252.249,57.2739 249.5,57.5C 245.61,56.4455 241.61,56.2788 237.5,57C 236.02,55.7009 235.354,54.0342 235.5,52C 235.712,48.7876 237.379,46.7876 240.5,46C 246.348,45.8272 252.015,45.3272 257.5,44.5C 257.334,39.4889 257.501,34.4889 258,29.5C 259.463,27.1147 261.629,26.1147 264.5,26.5C 266.926,26.4035 269.093,27.0702 271,28.5C 271.499,33.8229 271.666,39.1563 271.5,44.5 Z"/></g>
<g><path style="opacity:1" fill="#b9892c" d="M 262.5,29.5 C 264.722,29.178 266.556,29.8446 268,31.5C 268.391,36.8544 268.891,42.1877 269.5,47.5C 276.175,47.3337 282.842,47.5004 289.5,48C 291.028,50.8808 290.362,53.2141 287.5,55C 281.833,55.3333 276.167,55.6667 270.5,56C 268.261,57.9777 266.928,60.4777 266.5,63.5C 264.929,64.3094 263.262,64.6427 261.5,64.5C 261.5,61.8333 261.5,59.1667 261.5,56.5C 254.343,54.4816 247.01,53.4816 239.5,53.5C 239.5,52.1667 239.5,50.8333 239.5,49.5C 247.426,50.1946 255.093,49.1946 262.5,46.5C 261.754,40.929 261.754,35.2623 262.5,29.5 Z"/></g>
<g><path style="opacity:1" fill="#b78c26" d="M 261.5,69.5 C 263.5,69.5 265.5,69.5 267.5,69.5C 270.034,77.1201 267.367,80.4535 259.5,79.5C 259.31,75.9682 259.977,72.6348 261.5,69.5 Z"/></g>
<g><path style="opacity:1" fill="#915f1a" d="M 264.5,87.5 C 264.5,124.833 264.5,162.167 264.5,199.5C 262.589,200.075 260.922,201.075 259.5,202.5C 260.851,200.608 261.518,198.442 261.5,196C 259.034,184.341 257.867,172.508 258,160.5C 256.456,158.532 255.289,156.365 254.5,154C 256.689,153.323 257.022,152.156 255.5,150.5C 256.243,148.281 257.243,146.947 258.5,146.5C 257.579,140.173 257.746,133.839 259,127.5C 259.667,128.833 260.333,128.833 261,127.5C 262.124,113.515 262.958,99.5154 263.5,85.5C 263.351,84.448 263.517,83.448 264,82.5C 264.494,84.1341 264.66,85.8008 264.5,87.5 Z"/></g>
<g><path style="opacity:0.361" fill="#b28f6b" d="M 251.5,134.5 C 251.843,141.429 250.509,147.763 247.5,153.5C 248.087,146.891 249.421,140.558 251.5,134.5 Z"/></g>
<g><path style="opacity:1" fill="#8e5c21" d="M 263.5,85.5 C 262.958,99.5154 262.124,113.515 261,127.5C 260.333,128.833 259.667,128.833 259,127.5C 257.746,133.839 257.579,140.173 258.5,146.5C 257.243,146.947 256.243,148.281 255.5,150.5C 257.022,152.156 256.689,153.323 254.5,154C 255.289,156.365 256.456,158.532 258,160.5C 257.867,172.508 259.034,184.341 261.5,196C 261.518,198.442 260.851,200.608 259.5,202.5C 253.146,208.183 246.48,213.516 239.5,218.5C 239.5,216.833 239.5,215.167 239.5,213.5C 240.5,213.5 241.5,213.5 242.5,213.5C 242.137,211.089 243.137,209.589 245.5,209C 244.584,208.626 243.75,208.126 243,207.5C 243.661,187.209 246.661,167.209 252,147.5C 253.045,140.875 253.711,134.208 254,127.5C 255.483,124.674 257.483,122.341 260,120.5C 260.609,116.476 260.442,112.476 259.5,108.5C 261.206,101.954 261.873,95.2874 261.5,88.5C 262.167,87.5 262.833,86.5 263.5,85.5 Z"/></g>
<g><path style="opacity:1" fill="#ebbe3e" d="M 265.5,93.5 C 266.167,94.1667 266.833,94.8333 267.5,95.5C 273.039,120.154 278.039,145.154 282.5,170.5C 281.685,169.571 280.852,168.571 280,167.5C 278.793,162.878 277.793,158.211 277,153.5C 275.988,151.136 274.655,149.802 273,149.5C 272.263,139.293 271.263,128.96 270,118.5C 269.107,117.289 268.274,117.289 267.5,118.5C 266.343,144.791 266.176,171.124 267,197.5C 267.309,198.766 267.809,199.933 268.5,201C 272.713,201.092 275.379,203.092 276.5,207C 283.932,213.83 285.598,212.997 281.5,204.5C 283.045,203.548 284.712,203.215 286.5,203.5C 284.776,194.598 283.776,185.598 283.5,176.5C 284.313,178.261 285.313,179.928 286.5,181.5C 287.047,194.306 288.38,206.972 290.5,219.5C 288.09,218.617 285.757,217.45 283.5,216C 278.003,210.316 272.17,205.15 266,200.5C 265.5,164.835 265.333,129.168 265.5,93.5 Z"/></g>
<g><path style="opacity:0.031" fill="#e7c1a2" d="M 247.5,153.5 C 247.678,157.122 247.011,160.456 245.5,163.5C 245.549,159.922 246.215,156.589 247.5,153.5 Z"/></g>
<g><path style="opacity:0.455" fill="#d7b46b" d="M 269.5,80.5 C 268.42,83.7431 268.253,87.0764 269,90.5C 275.404,120.745 281.238,151.079 286.5,181.5C 285.313,179.928 284.313,178.261 283.5,176.5C 283.675,174.379 283.341,172.379 282.5,170.5C 278.039,145.154 273.039,120.154 267.5,95.5C 267.249,90.4932 266.916,85.4932 266.5,80.5C 267.5,80.5 268.5,80.5 269.5,80.5 Z"/></g>
<g><path style="opacity:1" fill="#eec12f" d="M 282.5,170.5 C 283.341,172.379 283.675,174.379 283.5,176.5C 283.776,185.598 284.776,194.598 286.5,203.5C 284.712,203.215 283.045,203.548 281.5,204.5C 285.598,212.997 283.932,213.83 276.5,207C 275.379,203.092 272.713,201.092 268.5,201C 267.809,199.933 267.309,198.766 267,197.5C 266.176,171.124 266.343,144.791 267.5,118.5C 268.274,117.289 269.107,117.289 270,118.5C 271.263,128.96 272.263,139.293 273,149.5C 274.655,149.802 275.988,151.136 277,153.5C 277.793,158.211 278.793,162.878 280,167.5C 280.852,168.571 281.685,169.571 282.5,170.5 Z"/></g>
<g><path style="opacity:1" fill="#8e5d30" d="M 261.5,88.5 C 261.873,95.2874 261.206,101.954 259.5,108.5C 260.442,112.476 260.609,116.476 260,120.5C 257.483,122.341 255.483,124.674 254,127.5C 253.711,134.208 253.045,140.875 252,147.5C 246.661,167.209 243.661,187.209 243,207.5C 243.75,208.126 244.584,208.626 245.5,209C 243.137,209.589 242.137,211.089 242.5,213.5C 241.5,213.5 240.5,213.5 239.5,213.5C 239.5,215.167 239.5,216.833 239.5,218.5C 238.455,219.878 237.122,220.878 235.5,221.5C 235.5,220.167 235.5,218.833 235.5,217.5C 238.623,199.423 241.957,181.423 245.5,163.5C 247.011,160.456 247.678,157.122 247.5,153.5C 250.509,147.763 251.843,141.429 251.5,134.5C 254.232,118.921 257.565,103.588 261.5,88.5 Z"/></g>
<g><path style="opacity:0.569" fill="#9d7a5e" d="M 491.5,256.5 C 493.728,248.645 495.228,240.645 496,232.5C 499.594,225.909 501.594,218.909 502,211.5C 501.439,210.978 500.772,210.645 500,210.5C 496.224,211.394 492.39,211.728 488.5,211.5C 493.597,209.734 498.93,208.901 504.5,209C 505.059,209.725 505.392,210.558 505.5,211.5C 501.197,226.735 496.53,241.735 491.5,256.5 Z"/></g>
<g><path style="opacity:0.867" fill="#d7b869" d="M 286.5,181.5 C 289.757,194.276 292.591,207.276 295,220.5C 295.662,221.984 296.496,223.317 297.5,224.5C 294.053,224.385 291.72,222.719 290.5,219.5C 288.38,206.972 287.047,194.306 286.5,181.5 Z"/></g>
<g><path style="opacity:1" fill="#b9872d" d="M 264.5,199.5 C 265.39,201.782 265.556,204.115 265,206.5C 264.25,207.126 263.416,207.626 262.5,208C 263.833,209.84 263.666,210.34 262,209.5C 261.626,210.416 261.126,211.25 260.5,212C 256.321,214.264 251.988,216.097 247.5,217.5C 250.915,218.711 254.248,220.044 257.5,221.5C 258.167,220.833 258.833,220.167 259.5,219.5C 262.627,220.125 265.627,221.125 268.5,222.5C 281.956,233.226 286.623,247.226 282.5,264.5C 282.167,272.833 281.833,281.167 281.5,289.5C 270.213,290.645 258.88,290.811 247.5,290C 247,289.5 246.5,289 246,288.5C 245.502,285.518 245.335,282.518 245.5,279.5C 245.333,266.163 245.5,252.829 246,239.5C 246.383,238.944 246.883,238.611 247.5,238.5C 246.363,254.789 246.196,271.122 247,287.5C 247.5,288 248,288.5 248.5,289C 259.214,289.81 269.88,289.643 280.5,288.5C 281.666,272.844 281.833,257.177 281,241.5C 280.8,239.68 279.966,238.347 278.5,237.5C 275.75,233.689 272.75,230.022 269.5,226.5C 269.047,225.542 268.381,224.708 267.5,224C 262.968,223.1 258.801,223.933 255,226.5C 254.51,227.793 254.343,229.127 254.5,230.5C 252.336,230.721 250.67,231.721 249.5,233.5C 251.047,229.35 250.214,225.684 247,222.5C 244.251,222.47 241.918,223.803 240,226.5C 239.667,226.167 239.333,225.833 239,225.5C 236.692,226.991 234.192,227.991 231.5,228.5C 233.705,226.637 235.039,224.303 235.5,221.5C 237.122,220.878 238.455,219.878 239.5,218.5C 246.48,213.516 253.146,208.183 259.5,202.5C 260.922,201.075 262.589,200.075 264.5,199.5 Z"/></g>
<g><path style="opacity:0.698" fill="#835a33" d="M 491.5,256.5 C 489.15,267.233 486.483,277.9 483.5,288.5C 482.277,289.614 480.944,289.781 479.5,289C 476.285,285.291 473.285,281.458 470.5,277.5C 473.775,279.265 476.942,281.265 480,283.5C 482.02,282.968 482.853,281.635 482.5,279.5C 482.337,277.143 482.503,274.81 483,272.5C 486.458,262.229 489.958,251.895 493.5,241.5C 493.291,240.914 492.957,240.414 492.5,240C 495.939,230.655 498.939,221.488 501.5,212.5C 497.486,212.334 493.486,212.501 489.5,213C 483.615,215.018 477.615,216.518 471.5,217.5C 462.513,218.472 453.513,219.472 444.5,220.5C 458.891,216.755 473.558,213.755 488.5,211.5C 492.39,211.728 496.224,211.394 500,210.5C 500.772,210.645 501.439,210.978 502,211.5C 501.594,218.909 499.594,225.909 496,232.5C 495.228,240.645 493.728,248.645 491.5,256.5 Z"/></g>
<g><path style="opacity:1" fill="#88571e" d="M 482.5,279.5 C 481.417,279.539 480.417,279.873 479.5,280.5C 478.713,279.758 478.047,278.925 477.5,278C 478.329,276.184 479.163,274.351 480,272.5C 480.333,273.167 480.667,273.833 481,274.5C 481.52,269.79 481.854,265.123 482,260.5C 481.626,261.416 481.126,262.25 480.5,263C 478.5,263.333 476.5,263.667 474.5,264C 475.623,265.044 476.956,265.71 478.5,266C 479.76,267.814 479.76,269.647 478.5,271.5C 477.575,272.641 476.741,272.641 476,271.5C 475.085,272.328 474.419,273.328 474,274.5C 472.167,273.333 470.667,271.833 469.5,270C 466.692,269.762 464.026,270.096 461.5,271C 463.269,268.943 465.269,267.11 467.5,265.5C 468.748,266.04 469.915,266.707 471,267.5C 471.219,266.062 471.719,264.729 472.5,263.5C 474.779,262.263 476.945,260.93 479,259.5C 479.5,258 480,256.5 480.5,255C 479.091,253.017 478.091,250.85 477.5,248.5C 479.891,247.191 479.891,246.191 477.5,245.5C 475.666,246.754 473.666,247.421 471.5,247.5C 471.762,248.978 471.429,250.311 470.5,251.5C 468.889,250.68 468.222,249.346 468.5,247.5C 466.897,247.312 465.563,247.812 464.5,249C 465.769,251.139 465.769,253.305 464.5,255.5C 463.833,250.167 463.167,244.833 462.5,239.5C 461.881,236.968 460.881,234.635 459.5,232.5C 462.136,230.936 461.969,229.603 459,228.5C 458.167,229.5 457.333,230.5 456.5,231.5C 448.361,229.737 440.027,228.903 431.5,229C 430.833,228 430.167,227 429.5,226C 438.199,225.335 446.699,223.835 455,221.5C 455.414,221.957 455.914,222.291 456.5,222.5C 461.692,221.053 466.692,219.386 471.5,217.5C 477.615,216.518 483.615,215.018 489.5,213C 493.486,212.501 497.486,212.334 501.5,212.5C 498.939,221.488 495.939,230.655 492.5,240C 492.957,240.414 493.291,240.914 493.5,241.5C 489.958,251.895 486.458,262.229 483,272.5C 482.503,274.81 482.337,277.143 482.5,279.5 Z"/></g>
<g><path style="opacity:0.416" fill="#996e53" d="M 441.5,220.5 C 441.389,221.117 441.056,221.617 440.5,222C 436.486,222.837 432.486,223.671 428.5,224.5C 428.343,225.873 428.51,227.207 429,228.5C 432.674,231.992 435.174,235.659 436.5,239.5C 431.657,235.49 427.324,230.99 423.5,226C 423.82,224.347 424.82,223.347 426.5,223C 431.474,221.949 436.474,221.115 441.5,220.5 Z"/></g>
<g><path style="opacity:1" fill="#87561f" d="M 471.5,217.5 C 466.692,219.386 461.692,221.053 456.5,222.5C 455.914,222.291 455.414,221.957 455,221.5C 446.699,223.835 438.199,225.335 429.5,226C 430.167,227 430.833,228 431.5,229C 440.027,228.903 448.361,229.737 456.5,231.5C 457.333,230.5 458.167,229.5 459,228.5C 461.969,229.603 462.136,230.936 459.5,232.5C 460.881,234.635 461.881,236.968 462.5,239.5C 463.167,244.833 463.833,250.167 464.5,255.5C 465.769,253.305 465.769,251.139 464.5,249C 465.563,247.812 466.897,247.312 468.5,247.5C 468.222,249.346 468.889,250.68 470.5,251.5C 471.429,250.311 471.762,248.978 471.5,247.5C 473.666,247.421 475.666,246.754 477.5,245.5C 479.891,246.191 479.891,247.191 477.5,248.5C 478.091,250.85 479.091,253.017 480.5,255C 480,256.5 479.5,258 479,259.5C 476.945,260.93 474.779,262.263 472.5,263.5C 471.719,264.729 471.219,266.062 471,267.5C 469.915,266.707 468.748,266.04 467.5,265.5C 465.269,267.11 463.269,268.943 461.5,271C 464.026,270.096 466.692,269.762 469.5,270C 470.667,271.833 472.167,273.333 474,274.5C 474.419,273.328 475.085,272.328 476,271.5C 476.741,272.641 477.575,272.641 478.5,271.5C 479.76,269.647 479.76,267.814 478.5,266C 476.956,265.71 475.623,265.044 474.5,264C 476.5,263.667 478.5,263.333 480.5,263C 481.126,262.25 481.626,261.416 482,260.5C 481.854,265.123 481.52,269.79 481,274.5C 480.667,273.833 480.333,273.167 480,272.5C 479.163,274.351 478.329,276.184 477.5,278C 478.047,278.925 478.713,279.758 479.5,280.5C 480.417,279.873 481.417,279.539 482.5,279.5C 482.853,281.635 482.02,282.968 480,283.5C 476.942,281.265 473.775,279.265 470.5,277.5C 469.094,277.027 468.427,276.027 468.5,274.5C 467.903,273.861 467.07,273.528 466,273.5C 464.2,274.378 462.367,275.045 460.5,275.5C 459.732,279.349 457.399,281.682 453.5,282.5C 452.756,283.991 452.09,285.491 451.5,287C 445.992,288.507 441.992,291.84 439.5,297C 437.158,298.728 434.825,300.395 432.5,302C 436.226,303.043 435.893,303.543 431.5,303.5C 431.009,306.01 430.009,308.344 428.5,310.5C 427.914,310.291 427.414,309.957 427,309.5C 424.276,313.025 421.442,315.358 418.5,316.5C 418.5,317.5 418.5,318.5 418.5,319.5C 412.078,325.55 405.078,330.883 397.5,335.5C 397.586,334.504 397.252,333.671 396.5,333C 398.359,332.316 400.026,331.316 401.5,330C 405.688,326.027 409.021,322.027 411.5,318C 410.464,316.383 409.297,316.216 408,317.5C 407.692,316.692 407.192,316.025 406.5,315.5C 405.738,316.628 405.071,317.795 404.5,319C 403.275,319.563 402.275,319.23 401.5,318C 403.157,315.514 404.824,313.014 406.5,310.5C 406,309.5 405.5,308.5 405,307.5C 402.646,308.736 400.646,310.403 399,312.5C 398.79,313.803 398.957,315.136 399.5,316.5C 399.444,317.737 398.944,318.737 398,319.5C 396.439,317.027 394.439,315.027 392,313.5C 391.667,312.167 391.333,310.833 391,309.5C 389.989,310.337 388.822,310.67 387.5,310.5C 388.357,313.043 389.69,315.377 391.5,317.5C 391.333,318.167 391.167,318.833 391,319.5C 389.026,319.374 386.859,319.208 384.5,319C 383.91,317.701 382.91,316.868 381.5,316.5C 379.771,318.228 377.771,319.561 375.5,320.5C 373.369,319.037 371.035,318.037 368.5,317.5C 366.003,318.219 363.669,319.219 361.5,320.5C 362.29,319.206 363.29,318.039 364.5,317C 366.871,315.121 369.538,313.955 372.5,313.5C 372.33,312.178 372.663,311.011 373.5,310C 379.792,306.686 385.792,303.02 391.5,299C 395.804,293.095 400.804,287.761 406.5,283C 407.448,282.517 408.448,282.351 409.5,282.5C 409.629,280.784 409.962,279.117 410.5,277.5C 421.074,268.43 431.24,258.764 441,248.5C 441.667,247.5 441.667,246.5 441,245.5C 438.873,243.886 437.373,241.886 436.5,239.5C 435.174,235.659 432.674,231.992 429,228.5C 428.51,227.207 428.343,225.873 428.5,224.5C 432.486,223.671 436.486,222.837 440.5,222C 441.056,221.617 441.389,221.117 441.5,220.5C 442.5,220.5 443.5,220.5 444.5,220.5C 453.513,219.472 462.513,218.472 471.5,217.5 Z"/></g>
<g><path style="opacity:0.722" fill="#b88f58" d="M 235.5,217.5 C 235.5,218.833 235.5,220.167 235.5,221.5C 235.039,224.303 233.705,226.637 231.5,228.5C 226.847,231.217 222.847,234.717 219.5,239C 220.604,240.715 221.938,242.215 223.5,243.5C 220.421,243.26 217.421,243.593 214.5,244.5C 212.276,243.919 211.443,242.586 212,240.5C 219.628,234.54 226.962,228.207 234,221.5C 234.21,219.942 234.71,218.609 235.5,217.5 Z"/></g>
<g><path style="opacity:1" fill="#c18d27" d="M 249.5,233.5 C 248.058,234.82 247.392,236.486 247.5,238.5C 246.883,238.611 246.383,238.944 246,239.5C 245.5,252.829 245.333,266.163 245.5,279.5C 244.84,280.964 244.507,282.631 244.5,284.5C 244.288,287.011 244.955,289.178 246.5,291C 257.572,291.068 268.572,291.735 279.5,293C 274.585,295.674 269.418,296.174 264,294.5C 261.195,295.467 258.695,296.3 256.5,297C 259.095,297.226 261.595,297.726 264,298.5C 265.667,298.167 267.333,297.833 269,297.5C 270.194,298.43 271.527,299.097 273,299.5C 277.588,298.669 282.422,298.002 287.5,297.5C 287.67,298.822 287.337,299.989 286.5,301C 282.579,301.203 278.745,301.703 275,302.5C 270.377,302.24 265.544,301.74 260.5,301C 258.337,300.755 256.67,299.755 255.5,298C 252.905,297.774 250.405,297.274 248,296.5C 247.517,297.448 247.351,298.448 247.5,299.5C 250.167,300.167 252.833,300.833 255.5,301.5C 255.649,302.552 255.483,303.552 255,304.5C 254.667,304.167 254.333,303.833 254,303.5C 249.679,305.007 245.179,306.007 240.5,306.5C 239.828,308.53 239.162,310.53 238.5,312.5C 236.99,311.272 235.49,311.272 234,312.5C 231.573,311.219 229.073,310.219 226.5,309.5C 226.5,287.5 226.5,265.5 226.5,243.5C 225.5,243.5 224.5,243.5 223.5,243.5C 221.938,242.215 220.604,240.715 219.5,239C 222.847,234.717 226.847,231.217 231.5,228.5C 234.192,227.991 236.692,226.991 239,225.5C 239.333,225.833 239.667,226.167 240,226.5C 241.918,223.803 244.251,222.47 247,222.5C 250.214,225.684 251.047,229.35 249.5,233.5 Z"/></g>
<g><path style="opacity:1" fill="#c08c28" d="M 264.5,87.5 C 265.461,89.2646 265.795,91.2646 265.5,93.5C 265.333,129.168 265.5,164.835 266,200.5C 272.17,205.15 278.003,210.316 283.5,216C 285.757,217.45 288.09,218.617 290.5,219.5C 291.72,222.719 294.053,224.385 297.5,224.5C 298.167,224.833 298.833,225.167 299.5,225.5C 299.5,226.833 299.5,228.167 299.5,229.5C 300.822,229.33 301.989,229.663 303,230.5C 303.724,233.538 305.224,236.038 307.5,238C 306.139,239.927 305.306,242.094 305,244.5C 304.792,273.186 304.292,301.852 303.5,330.5C 301.821,330.285 300.821,330.952 300.5,332.5C 293.182,332.287 286.182,333.287 279.5,335.5C 274.489,335.666 269.489,335.499 264.5,335C 264.335,333.883 264.002,332.716 263.5,331.5C 264.833,330.833 266.167,330.167 267.5,329.5C 266.965,327.729 266.131,327.396 265,328.5C 264.333,325.833 263.667,323.167 263,320.5C 260.624,319.624 259.124,317.958 258.5,315.5C 251.953,314.542 245.287,313.542 238.5,312.5C 239.162,310.53 239.828,308.53 240.5,306.5C 245.179,306.007 249.679,305.007 254,303.5C 254.333,303.833 254.667,304.167 255,304.5C 255.483,303.552 255.649,302.552 255.5,301.5C 252.833,300.833 250.167,300.167 247.5,299.5C 247.351,298.448 247.517,297.448 248,296.5C 250.405,297.274 252.905,297.774 255.5,298C 256.67,299.755 258.337,300.755 260.5,301C 265.544,301.74 270.377,302.24 275,302.5C 278.745,301.703 282.579,301.203 286.5,301C 287.337,299.989 287.67,298.822 287.5,297.5C 282.422,298.002 277.588,298.669 273,299.5C 271.527,299.097 270.194,298.43 269,297.5C 267.333,297.833 265.667,298.167 264,298.5C 261.595,297.726 259.095,297.226 256.5,297C 258.695,296.3 261.195,295.467 264,294.5C 269.418,296.174 274.585,295.674 279.5,293C 268.572,291.735 257.572,291.068 246.5,291C 244.955,289.178 244.288,287.011 244.5,284.5C 244.507,282.631 244.84,280.964 245.5,279.5C 245.335,282.518 245.502,285.518 246,288.5C 246.5,289 247,289.5 247.5,290C 258.88,290.811 270.213,290.645 281.5,289.5C 281.833,281.167 282.167,272.833 282.5,264.5C 286.623,247.226 281.956,233.226 268.5,222.5C 265.627,221.125 262.627,220.125 259.5,219.5C 258.833,220.167 258.167,220.833 257.5,221.5C 254.248,220.044 250.915,218.711 247.5,217.5C 251.988,216.097 256.321,214.264 260.5,212C 261.126,211.25 261.626,210.416 262,209.5C 263.666,210.34 263.833,209.84 262.5,208C 263.416,207.626 264.25,207.126 265,206.5C 265.556,204.115 265.39,201.782 264.5,199.5C 264.5,162.167 264.5,124.833 264.5,87.5 Z"/></g>
<g><path style="opacity:0.071" fill="#c3a889" d="M 315.5,238.5 C 317.647,239.932 317.98,241.765 316.5,244C 313.686,244.032 311.02,243.532 308.5,242.5C 311.247,242.813 313.914,242.48 316.5,241.5C 315.873,240.583 315.539,239.583 315.5,238.5 Z"/></g>
<g><path style="opacity:0.24" fill="#b79157" d="M 299.5,225.5 C 304.833,229.833 310.167,234.167 315.5,238.5C 315.539,239.583 315.873,240.583 316.5,241.5C 313.914,242.48 311.247,242.813 308.5,242.5C 306.673,271.149 305.84,300.149 306,329.5C 304.826,331.671 302.993,332.671 300.5,332.5C 300.821,330.952 301.821,330.285 303.5,330.5C 304.292,301.852 304.792,273.186 305,244.5C 305.306,242.094 306.139,239.927 307.5,238C 305.224,236.038 303.724,233.538 303,230.5C 301.989,229.663 300.822,229.33 299.5,229.5C 299.5,228.167 299.5,226.833 299.5,225.5 Z"/></g>
<g><path style="opacity:1" fill="#d1b068" d="M 223.5,317.5 C 222.516,322.279 220.85,326.779 218.5,331C 219.056,332.011 219.722,332.844 220.5,333.5C 210.678,329.127 200.345,326.461 189.5,325.5C 189.918,324.778 190.584,324.278 191.5,324C 175.499,323.731 159.499,323.897 143.5,324.5C 143.649,323.448 143.483,322.448 143,321.5C 138.658,316.737 135.158,311.404 132.5,305.5C 132.145,300.78 130.811,297.114 128.5,294.5C 128.833,293.833 129.167,293.167 129.5,292.5C 130.736,293.246 132.07,293.579 133.5,293.5C 134.425,297.059 135.758,300.393 137.5,303.5C 138.5,303.5 139.5,303.5 140.5,303.5C 141.706,297.574 139.54,293.574 134,291.5C 133.251,290.365 133.417,289.365 134.5,288.5C 142.802,287.398 151.136,287.398 159.5,288.5C 159.201,290.604 159.534,292.604 160.5,294.5C 161.386,293.675 161.719,292.675 161.5,291.5C 165.775,291.902 169.942,291.902 174,291.5C 179.963,294.308 185.796,297.308 191.5,300.5C 196.576,301.872 201.242,304.039 205.5,307C 205.167,307.333 204.833,307.667 204.5,308C 205.899,308.595 207.232,308.428 208.5,307.5C 211.378,310.164 214.545,311.498 218,311.5C 218.692,312.025 219.192,312.692 219.5,313.5C 218.754,314.736 218.421,316.07 218.5,317.5C 220.167,317.5 221.833,317.5 223.5,317.5 Z"/></g>
<g><path style="opacity:1" fill="#ccac72" d="M 223.5,257.5 C 224.497,275.659 224.83,293.992 224.5,312.5C 224.371,314.216 224.038,315.883 223.5,317.5C 221.833,317.5 220.167,317.5 218.5,317.5C 218.421,316.07 218.754,314.736 219.5,313.5C 219.192,312.692 218.692,312.025 218,311.5C 214.545,311.498 211.378,310.164 208.5,307.5C 207.232,308.428 205.899,308.595 204.5,308C 204.833,307.667 205.167,307.333 205.5,307C 201.242,304.039 196.576,301.872 191.5,300.5C 185.796,297.308 179.963,294.308 174,291.5C 169.942,291.902 165.775,291.902 161.5,291.5C 161.719,292.675 161.386,293.675 160.5,294.5C 159.534,292.604 159.201,290.604 159.5,288.5C 151.136,287.398 142.802,287.398 134.5,288.5C 133.417,289.365 133.251,290.365 134,291.5C 139.54,293.574 141.706,297.574 140.5,303.5C 139.5,303.5 138.5,303.5 137.5,303.5C 135.758,300.393 134.425,297.059 133.5,293.5C 132.07,293.579 130.736,293.246 129.5,292.5C 129.167,293.167 128.833,293.833 128.5,294.5C 130.811,297.114 132.145,300.78 132.5,305.5C 130.962,302.101 129.129,298.767 127,295.5C 126.991,292.631 126.824,289.964 126.5,287.5C 138.118,283.273 150.118,282.439 162.5,285C 170.591,287.023 178.591,289.356 186.5,292C 198.743,297.705 210.91,303.538 223,309.5C 223.5,292.17 223.667,274.837 223.5,257.5 Z"/></g>
<g><path style="opacity:0.473" fill="#bf9a5b" d="M 269.5,226.5 C 266.315,224.168 262.981,224.001 259.5,226C 255.95,229.883 252.783,234.049 250,238.5C 248.545,254.763 248.045,271.096 248.5,287.5C 258.833,287.5 269.167,287.5 279.5,287.5C 279.805,270.786 279.471,254.119 278.5,237.5C 279.966,238.347 280.8,239.68 281,241.5C 281.833,257.177 281.666,272.844 280.5,288.5C 269.88,289.643 259.214,289.81 248.5,289C 248,288.5 247.5,288 247,287.5C 246.196,271.122 246.363,254.789 247.5,238.5C 247.392,236.486 248.058,234.82 249.5,233.5C 250.67,231.721 252.336,230.721 254.5,230.5C 254.343,229.127 254.51,227.793 255,226.5C 258.801,223.933 262.968,223.1 267.5,224C 268.381,224.708 269.047,225.542 269.5,226.5 Z"/></g>
<g><path style="opacity:0.992" fill="#8f653c" d="M 468.5,274.5 C 458.443,284.055 448.443,293.889 438.5,304C 431.954,309.426 425.287,314.593 418.5,319.5C 418.5,318.5 418.5,317.5 418.5,316.5C 421.442,315.358 424.276,313.025 427,309.5C 427.414,309.957 427.914,310.291 428.5,310.5C 430.009,308.344 431.009,306.01 431.5,303.5C 435.893,303.543 436.226,303.043 432.5,302C 434.825,300.395 437.158,298.728 439.5,297C 441.992,291.84 445.992,288.507 451.5,287C 452.09,285.491 452.756,283.991 453.5,282.5C 457.399,281.682 459.732,279.349 460.5,275.5C 462.367,275.045 464.2,274.378 466,273.5C 467.07,273.528 467.903,273.861 468.5,274.5 Z"/></g>
<g><path style="opacity:1" fill="#6e212a" d="M 436.5,324.5 C 436.5,324.167 436.5,323.833 436.5,323.5C 436.5,322.833 436.833,322.5 437.5,322.5C 446.458,316.542 454.125,309.209 460.5,300.5C 461.167,298.5 462.5,297.167 464.5,296.5C 465.959,296.567 467.292,296.234 468.5,295.5C 469.117,295.389 469.617,295.056 470,294.5C 471.76,344.822 471.926,395.155 470.5,445.5C 459.52,445.582 448.52,445.582 437.5,445.5C 437.832,404.997 437.499,364.663 436.5,324.5 Z"/></g>
<g><path style="opacity:0.204" fill="#895757" d="M 460.5,300.5 C 454.125,309.209 446.458,316.542 437.5,322.5C 445.187,315.145 452.854,307.812 460.5,300.5 Z"/></g>
<g><path style="opacity:1" fill="#88571d" d="M 397.5,335.5 C 393.788,335.658 390.288,335.658 387,335.5C 384.223,338.291 382.723,337.625 382.5,333.5C 376.907,333.807 371.407,333.473 366,332.5C 363.2,333.125 360.366,333.792 357.5,334.5C 357,335.5 356.5,336.5 356,337.5C 351.053,332.214 346.553,332.714 342.5,339C 337.822,339.197 337.488,340.197 341.5,342C 337.916,343.073 334.25,343.74 330.5,344C 326.362,347.012 325.029,345.846 326.5,340.5C 332.221,335.958 338.555,332.458 345.5,330C 346.167,328.667 346.833,327.333 347.5,326C 352.287,326.49 355.954,324.823 358.5,321C 359.448,320.517 360.448,320.351 361.5,320.5C 363.669,319.219 366.003,318.219 368.5,317.5C 371.035,318.037 373.369,319.037 375.5,320.5C 377.771,319.561 379.771,318.228 381.5,316.5C 382.91,316.868 383.91,317.701 384.5,319C 386.859,319.208 389.026,319.374 391,319.5C 391.167,318.833 391.333,318.167 391.5,317.5C 389.69,315.377 388.357,313.043 387.5,310.5C 388.822,310.67 389.989,310.337 391,309.5C 391.333,310.833 391.667,312.167 392,313.5C 394.439,315.027 396.439,317.027 398,319.5C 398.944,318.737 399.444,317.737 399.5,316.5C 398.957,315.136 398.79,313.803 399,312.5C 400.646,310.403 402.646,308.736 405,307.5C 405.5,308.5 406,309.5 406.5,310.5C 404.824,313.014 403.157,315.514 401.5,318C 402.275,319.23 403.275,319.563 404.5,319C 405.071,317.795 405.738,316.628 406.5,315.5C 407.192,316.025 407.692,316.692 408,317.5C 409.297,316.216 410.464,316.383 411.5,318C 409.021,322.027 405.688,326.027 401.5,330C 400.026,331.316 398.359,332.316 396.5,333C 397.252,333.671 397.586,334.504 397.5,335.5 Z"/></g>
<g><path style="opacity:0.635" fill="#c3a775" d="M 128.5,315.5 C 120.184,314.815 111.851,314.482 103.5,314.5C 100.833,314.5 98.1667,314.5 95.5,314.5C 93.5,314.5 91.5,314.5 89.5,314.5C 85.8183,314.335 82.1516,314.501 78.5,315C 73.2266,316.488 67.8933,317.654 62.5,318.5C 79.2323,312.657 96.5656,310.491 114.5,312C 119.516,312.254 124.183,313.421 128.5,315.5 Z"/></g>
<g><path style="opacity:1" fill="#b78633" d="M 223.5,243.5 C 224.5,243.5 225.5,243.5 226.5,243.5C 226.5,265.5 226.5,287.5 226.5,309.5C 229.073,310.219 231.573,311.219 234,312.5C 235.49,311.272 236.99,311.272 238.5,312.5C 245.287,313.542 251.953,314.542 258.5,315.5C 259.124,317.958 260.624,319.624 263,320.5C 263.667,323.167 264.333,325.833 265,328.5C 266.131,327.396 266.965,327.729 267.5,329.5C 266.167,330.167 264.833,330.833 263.5,331.5C 264.002,332.716 264.335,333.883 264.5,335C 269.489,335.499 274.489,335.666 279.5,335.5C 273.69,336.49 267.69,336.823 261.5,336.5C 261.666,331.489 261.499,326.489 261,321.5C 260.5,321 260,320.5 259.5,320C 247.971,316.876 236.304,314.376 224.5,312.5C 224.83,293.992 224.497,275.659 223.5,257.5C 223.5,252.833 223.5,248.167 223.5,243.5 Z"/></g>
<g><path style="opacity:1" fill="#d3b262" d="M 103.5,314.5 C 111.851,314.482 120.184,314.815 128.5,315.5C 130.226,318.445 132.393,321.111 135,323.5C 135.749,324.635 135.583,325.635 134.5,326.5C 128.944,328.477 123.278,330.31 117.5,332C 114.8,332.253 112.133,332.253 109.5,332C 107.893,333.049 107.227,334.549 107.5,336.5C 106.5,336.5 105.5,336.5 104.5,336.5C 101.833,336.167 99.1667,335.833 96.5,335.5C 97.114,329.781 96.4473,324.114 94.5,318.5C 97.3783,316.922 100.378,315.588 103.5,314.5 Z"/></g>
<g><path style="opacity:0.999" fill="#966628" d="M 224.5,312.5 C 236.304,314.376 247.971,316.876 259.5,320C 260,320.5 260.5,321 261,321.5C 261.499,326.489 261.666,331.489 261.5,336.5C 251.657,337.644 241.657,337.644 231.5,336.5C 227.521,336.258 223.854,335.258 220.5,333.5C 219.722,332.844 219.056,332.011 218.5,331C 220.85,326.779 222.516,322.279 223.5,317.5C 224.038,315.883 224.371,314.216 224.5,312.5 Z"/></g>
<g><path style="opacity:0.3" fill="#c0a277" d="M 126.5,287.5 C 126.824,289.964 126.991,292.631 127,295.5C 129.129,298.767 130.962,302.101 132.5,305.5C 135.158,311.404 138.658,316.737 143,321.5C 143.483,322.448 143.649,323.448 143.5,324.5C 159.499,323.897 175.499,323.731 191.5,324C 190.584,324.278 189.918,324.778 189.5,325.5C 176.488,325.367 163.488,325.7 150.5,326.5C 144.911,326.706 139.578,327.706 134.5,329.5C 136.512,328.476 138.178,326.976 139.5,325C 136.561,323.334 134.228,321.001 132.5,318C 132.728,317.601 133.062,317.435 133.5,317.5C 134.423,318.303 135.423,318.47 136.5,318C 129.133,309.77 124.633,300.27 123,289.5C 123.816,288.177 124.983,287.511 126.5,287.5 Z"/></g>
<g><path style="opacity:0.255" fill="#bc9678" d="M 62.5,318.5 C 62.5,318.833 62.5,319.167 62.5,319.5C 55.6785,322.553 48.6785,325.22 41.5,327.5C 42.0577,326.21 43.0577,325.377 44.5,325C 50.4237,322.534 56.4237,320.368 62.5,318.5 Z"/></g>
<g><path style="opacity:1" fill="#c29d4f" d="M 95.5,314.5 C 98.1667,314.5 100.833,314.5 103.5,314.5C 100.378,315.588 97.3783,316.922 94.5,318.5C 96.4473,324.114 97.114,329.781 96.5,335.5C 99.1667,335.833 101.833,336.167 104.5,336.5C 100.263,337.952 96.2627,339.952 92.5,342.5C 90.326,342.92 88.326,342.92 86.5,342.5C 87.1667,341.833 87.8333,341.167 88.5,340.5C 85.1247,338.296 84.7914,335.796 87.5,333C 86.8072,327.971 86.1405,322.971 85.5,318C 89.4,318.038 92.7333,316.871 95.5,314.5 Z"/></g>
<g><path style="opacity:1" fill="#a77c39" d="M 89.5,314.5 C 84.683,316.57 79.683,318.236 74.5,319.5C 73.7018,325.087 73.3684,330.587 73.5,336C 76.4574,338.677 76.624,341.177 74,343.5C 72.2869,342.047 70.7869,342.214 69.5,344C 70.7433,345.154 71.7433,346.488 72.5,348C 73.7932,348.49 75.1266,348.657 76.5,348.5C 75.3192,350.067 73.6526,350.901 71.5,351C 70.695,352.113 70.0283,353.279 69.5,354.5C 68.325,354.719 67.325,354.386 66.5,353.5C 67.8905,353.891 68.8905,353.058 69.5,351C 67.2748,345.611 65.2748,340.111 63.5,334.5C 65.0553,332.057 65.722,329.39 65.5,326.5C 61.551,326.307 61.551,325.807 65.5,325C 63.8876,324.28 62.3876,324.446 61,325.5C 60.8119,323.939 61.6453,323.272 63.5,323.5C 63.5,322.5 63.5,321.5 63.5,320.5C 64.5573,319.794 64.2239,319.461 62.5,319.5C 62.5,319.167 62.5,318.833 62.5,318.5C 67.8933,317.654 73.2266,316.488 78.5,315C 82.1516,314.501 85.8183,314.335 89.5,314.5 Z"/></g>
<g><path style="opacity:1" fill="#b58c41" d="M 89.5,314.5 C 91.5,314.5 93.5,314.5 95.5,314.5C 92.7333,316.871 89.4,318.038 85.5,318C 86.1405,322.971 86.8072,327.971 87.5,333C 84.7914,335.796 85.1247,338.296 88.5,340.5C 87.8333,341.167 87.1667,341.833 86.5,342.5C 88.326,342.92 90.326,342.92 92.5,342.5C 93.1667,342.5 93.5,342.833 93.5,343.5C 88.0188,345.7 82.3521,347.367 76.5,348.5C 75.1266,348.657 73.7932,348.49 72.5,348C 71.7433,346.488 70.7433,345.154 69.5,344C 70.7869,342.214 72.2869,342.047 74,343.5C 76.624,341.177 76.4574,338.677 73.5,336C 73.3684,330.587 73.7018,325.087 74.5,319.5C 79.683,318.236 84.683,316.57 89.5,314.5 Z"/></g>
<g><path style="opacity:0.998" fill="#caac70" d="M 128.5,315.5 C 130.553,315.402 132.22,316.069 133.5,317.5C 133.062,317.435 132.728,317.601 132.5,318C 134.228,321.001 136.561,323.334 139.5,325C 138.178,326.976 136.512,328.476 134.5,329.5C 120.781,333.74 107.114,338.407 93.5,343.5C 93.5,342.833 93.1667,342.5 92.5,342.5C 96.2627,339.952 100.263,337.952 104.5,336.5C 105.5,336.5 106.5,336.5 107.5,336.5C 107.227,334.549 107.893,333.049 109.5,332C 112.133,332.253 114.8,332.253 117.5,332C 123.278,330.31 128.944,328.477 134.5,326.5C 135.583,325.635 135.749,324.635 135,323.5C 132.393,321.111 130.226,318.445 128.5,315.5 Z"/></g>
<g><path style="opacity:0.765" fill="#8e643e" d="M 410.5,277.5 C 409.962,279.117 409.629,280.784 409.5,282.5C 408.448,282.351 407.448,282.517 406.5,283C 400.804,287.761 395.804,293.095 391.5,299C 385.792,303.02 379.792,306.686 373.5,310C 372.663,311.011 372.33,312.178 372.5,313.5C 369.538,313.955 366.871,315.121 364.5,317C 363.29,318.039 362.29,319.206 361.5,320.5C 360.448,320.351 359.448,320.517 358.5,321C 355.954,324.823 352.287,326.49 347.5,326C 346.833,327.333 346.167,328.667 345.5,330C 338.555,332.458 332.221,335.958 326.5,340.5C 324.194,340.993 321.861,341.326 319.5,341.5C 314.759,343.434 309.759,344.601 304.5,345C 303.663,346.011 303.33,347.178 303.5,348.5C 299.534,347.838 295.534,347.505 291.5,347.5C 336.843,333.667 376.51,310.334 410.5,277.5 Z"/></g>
<g><path style="opacity:1" fill="#8a5a21" d="M 397.5,335.5 C 392.203,338.819 386.869,342.153 381.5,345.5C 377.101,346.249 373.434,348.249 370.5,351.5C 360.133,357.016 349.466,362.016 338.5,366.5C 341.436,364.692 344.436,362.859 347.5,361C 346.833,360.667 346.167,360.333 345.5,360C 347.217,358.441 349.217,357.608 351.5,357.5C 351.5,356.167 351.5,354.833 351.5,353.5C 355.061,353.085 354.894,352.085 351,350.5C 350.395,352.481 349.395,352.815 348,351.5C 342.407,356.916 335.907,360.916 328.5,363.5C 325.851,360.961 323.184,360.961 320.5,363.5C 319.534,361.604 319.201,359.604 319.5,357.5C 314.167,357.5 308.833,357.5 303.5,357.5C 304.138,355.54 304.138,353.707 303.5,352C 304.833,351.667 306.167,351.333 307.5,351C 303.207,347.946 303.707,346.113 309,345.5C 311.685,346.926 314.518,347.926 317.5,348.5C 320.583,346.914 321.249,344.581 319.5,341.5C 321.861,341.326 324.194,340.993 326.5,340.5C 325.029,345.846 326.362,347.012 330.5,344C 334.25,343.74 337.916,343.073 341.5,342C 337.488,340.197 337.822,339.197 342.5,339C 346.553,332.714 351.053,332.214 356,337.5C 356.5,336.5 357,335.5 357.5,334.5C 360.366,333.792 363.2,333.125 366,332.5C 371.407,333.473 376.907,333.807 382.5,333.5C 382.723,337.625 384.223,338.291 387,335.5C 390.288,335.658 393.788,335.658 397.5,335.5 Z"/></g>
<g><path style="opacity:0.133" fill="#bf9796" d="M 426.5,330.5 C 425.5,332.167 424.167,333.5 422.5,334.5C 422.167,334.5 421.833,334.5 421.5,334.5C 422.585,332.413 424.251,331.08 426.5,330.5 Z"/></g>
<g><path style="opacity:1" fill="#996a2c" d="M 63.5,320.5 C 63.5,321.5 63.5,322.5 63.5,323.5C 61.6453,323.272 60.8119,323.939 61,325.5C 62.3876,324.446 63.8876,324.28 65.5,325C 61.551,325.807 61.551,326.307 65.5,326.5C 65.722,329.39 65.0553,332.057 63.5,334.5C 65.2748,340.111 67.2748,345.611 69.5,351C 68.8905,353.058 67.8905,353.891 66.5,353.5C 67.325,354.386 68.325,354.719 69.5,354.5C 70.4916,354.328 71.1583,354.662 71.5,355.5C 70.205,356.488 68.8717,357.488 67.5,358.5C 64.1694,358.018 61.5027,359.018 59.5,361.5C 58.5655,360.432 58.2322,359.099 58.5,357.5C 55.6717,358.461 53.0051,358.295 50.5,357C 50.7381,353.563 51.0714,349.897 51.5,346C 51.5769,342.667 50.9102,339.5 49.5,336.5C 50.6507,335.269 51.8173,335.269 53,336.5C 53.6924,335.975 54.1924,335.308 54.5,334.5C 51.3831,333.016 48.0498,332.016 44.5,331.5C 44.2907,330.914 43.9574,330.414 43.5,330C 50.2732,327.016 56.9398,323.85 63.5,320.5 Z"/></g>
<g><path style="opacity:0.208" fill="#c19c67" d="M 300.5,332.5 C 285.663,337.193 270.33,339.527 254.5,339.5C 246.566,339.391 238.9,338.391 231.5,336.5C 241.657,337.644 251.657,337.644 261.5,336.5C 267.69,336.823 273.69,336.49 279.5,335.5C 286.182,333.287 293.182,332.287 300.5,332.5 Z"/></g>
<g><path style="opacity:0.129" fill="#ab8b67" d="M 183.5,337.5 C 194.059,337.367 204.059,339.367 213.5,343.5C 209.681,343.586 206.015,342.919 202.5,341.5C 196.804,339.439 190.804,338.439 184.5,338.5C 183.833,338.5 183.5,338.167 183.5,337.5 Z"/></g>
<g><path style="opacity:1" fill="#6e242a" d="M 423.5,447.5 C 421.833,447.5 420.167,447.5 418.5,447.5C 417.833,447.5 417.167,447.5 416.5,447.5C 408.833,447.5 401.167,447.5 393.5,447.5C 393.829,416.926 393.496,386.426 392.5,356C 393.381,355.292 394.047,354.458 394.5,353.5C 397.291,351.265 400.291,349.265 403.5,347.5C 406.37,346.567 408.704,344.9 410.5,342.5C 414.143,339.865 417.81,337.199 421.5,334.5C 421.833,334.5 422.167,334.5 422.5,334.5C 421.71,335.794 420.71,336.961 419.5,338C 419.833,338.167 420.167,338.333 420.5,338.5C 422.524,336.642 424.691,334.975 427,333.5C 427.269,371.173 427.769,408.84 428.5,446.5C 426.585,446.216 424.919,446.549 423.5,447.5 Z"/></g>
<g><path style="opacity:1" fill="#905f26" d="M 62.5,319.5 C 64.2239,319.461 64.5573,319.794 63.5,320.5C 56.9398,323.85 50.2732,327.016 43.5,330C 43.9574,330.414 44.2907,330.914 44.5,331.5C 48.0498,332.016 51.3831,333.016 54.5,334.5C 54.1924,335.308 53.6924,335.975 53,336.5C 51.8173,335.269 50.6507,335.269 49.5,336.5C 50.9102,339.5 51.5769,342.667 51.5,346C 51.0714,349.897 50.7381,353.563 50.5,357C 53.0051,358.295 55.6717,358.461 58.5,357.5C 58.2322,359.099 58.5655,360.432 59.5,361.5C 55.8348,363.999 51.8348,365.999 47.5,367.5C 43.4468,365.621 39.7801,363.121 36.5,360C 35.2068,359.51 33.8734,359.343 32.5,359.5C 28.9485,357.889 25.9485,355.556 23.5,352.5C 22.0892,350.086 20.0892,348.419 17.5,347.5C 16.1555,344.267 17.1555,341.767 20.5,340C 27.2249,335.307 34.2249,331.14 41.5,327.5C 48.6785,325.22 55.6785,322.553 62.5,319.5 Z"/></g>
<g><path style="opacity:1" fill="#d8b968" d="M 145.5,339.5 C 145.833,339.5 146.167,339.5 146.5,339.5C 146.369,340.376 146.702,341.043 147.5,341.5C 156.751,339.77 166.084,339.27 175.5,340C 177.045,341.822 177.712,343.989 177.5,346.5C 177.093,351.917 176.426,357.25 175.5,362.5C 163.443,363.92 151.443,365.754 139.5,368C 134.015,369.913 128.682,372.08 123.5,374.5C 120.61,374.278 117.943,374.945 115.5,376.5C 114.334,374.635 114.667,372.968 116.5,371.5C 116.654,365.397 115.987,359.397 114.5,353.5C 115.612,352.735 116.279,351.735 116.5,350.5C 125.12,346.908 134.12,344.408 143.5,343C 144.823,342.184 145.489,341.017 145.5,339.5 Z"/></g>
<g><path style="opacity:0.059" fill="#caa8ac" d="M 410.5,342.5 C 408.704,344.9 406.37,346.567 403.5,347.5C 405.296,345.1 407.63,343.433 410.5,342.5 Z"/></g>
<g><path style="opacity:0.094" fill="#e0cabf" d="M 17.5,347.5 C 20.0892,348.419 22.0892,350.086 23.5,352.5C 20.9108,351.581 18.9108,349.914 17.5,347.5 Z"/></g>
<g><path style="opacity:0.027" fill="#cbaa84" d="M 381.5,345.5 C 378.322,348.258 374.655,350.258 370.5,351.5C 373.434,348.249 377.101,346.249 381.5,345.5 Z"/></g>
<g><path style="opacity:0.714" fill="#bfa573" d="M 145.5,339.5 C 145.489,341.017 144.823,342.184 143.5,343C 134.12,344.408 125.12,346.908 116.5,350.5C 111.209,351.403 106.209,353.07 101.5,355.5C 99.5648,356.15 97.5648,356.483 95.5,356.5C 111.28,348.462 127.946,342.795 145.5,339.5 Z"/></g>
<g><path style="opacity:0.549" fill="#997454" d="M 213.5,343.5 C 223.05,346.968 232.717,349.635 242.5,351.5C 238.833,351.5 235.167,351.5 231.5,351.5C 224.929,349.876 218.929,347.21 213.5,343.5 Z"/></g>
<g><path style="opacity:0.078" fill="#b19174" d="M 290.5,347.5 C 289.666,348.748 288.333,349.415 286.5,349.5C 283.183,350.053 279.85,350.386 276.5,350.5C 280.942,349.01 285.609,348.01 290.5,347.5 Z"/></g>
<g><path style="opacity:0.063" fill="#caa9a7" d="M 430.5,372.5 C 429.504,358.677 429.171,344.677 429.5,330.5C 428.5,330.5 427.5,330.5 426.5,330.5C 427.255,328.534 428.421,328.2 430,329.5C 430.5,343.829 430.667,358.163 430.5,372.5 Z"/></g>
<g><path style="opacity:0.945" fill="#ad8a5a" d="M 93.5,343.5 C 86.4247,347.894 79.0913,351.894 71.5,355.5C 71.1583,354.662 70.4916,354.328 69.5,354.5C 70.0283,353.279 70.695,352.113 71.5,351C 73.6526,350.901 75.3192,350.067 76.5,348.5C 82.3521,347.367 88.0188,345.7 93.5,343.5 Z"/></g>
<g><path style="opacity:1" fill="#9d702e" d="M 184.5,338.5 C 190.804,338.439 196.804,339.439 202.5,341.5C 202.953,342.458 203.619,343.292 204.5,344C 202.963,345.11 202.297,346.61 202.5,348.5C 204.262,348.643 205.929,348.309 207.5,347.5C 208.793,350.788 209.459,353.954 209.5,357C 208.552,357.483 207.552,357.649 206.5,357.5C 206.64,359.124 205.973,360.29 204.5,361C 204.833,361.333 205.167,361.667 205.5,362C 204.692,362.308 204.025,362.808 203.5,363.5C 197.537,364.496 191.537,364.829 185.5,364.5C 185.5,364.167 185.5,363.833 185.5,363.5C 188.323,363.975 190.323,362.975 191.5,360.5C 192.744,357.144 192.744,353.811 191.5,350.5C 192.383,349.452 193.05,348.285 193.5,347C 191.586,345.146 190.92,343.146 191.5,341C 188.809,340.844 186.476,340.011 184.5,338.5 Z"/></g>
<g><path style="opacity:1" fill="#c49f51" d="M 116.5,350.5 C 116.279,351.735 115.612,352.735 114.5,353.5C 115.987,359.397 116.654,365.397 116.5,371.5C 114.667,372.968 114.334,374.635 115.5,376.5C 117.943,374.945 120.61,374.278 123.5,374.5C 119.889,376.931 115.889,378.597 111.5,379.5C 107.458,380.187 103.792,381.854 100.5,384.5C 98.9386,379.464 97.2719,374.464 95.5,369.5C 96.8221,369.67 97.9887,369.337 99,368.5C 99.3698,365.051 99.2031,361.884 98.5,359C 99.7101,357.961 100.71,356.794 101.5,355.5C 106.209,353.07 111.209,351.403 116.5,350.5 Z"/></g>
<g><path style="opacity:1" fill="#ba934a" d="M 183.5,337.5 C 183.5,338.167 183.833,338.5 184.5,338.5C 186.476,340.011 188.809,340.844 191.5,341C 190.92,343.146 191.586,345.146 193.5,347C 193.05,348.285 192.383,349.452 191.5,350.5C 192.744,353.811 192.744,357.144 191.5,360.5C 190.323,362.975 188.323,363.975 185.5,363.5C 182.236,362.676 178.902,362.342 175.5,362.5C 176.426,357.25 177.093,351.917 177.5,346.5C 177.712,343.989 177.045,341.822 175.5,340C 166.084,339.27 156.751,339.77 147.5,341.5C 146.702,341.043 146.369,340.376 146.5,339.5C 158.857,337.675 171.191,337.008 183.5,337.5 Z"/></g>
<g><path style="opacity:1" fill="#88571f" d="M 319.5,341.5 C 321.249,344.581 320.583,346.914 317.5,348.5C 314.518,347.926 311.685,346.926 309,345.5C 303.707,346.113 303.207,347.946 307.5,351C 306.167,351.333 304.833,351.667 303.5,352C 304.138,353.707 304.138,355.54 303.5,357.5C 308.833,357.5 314.167,357.5 319.5,357.5C 319.201,359.604 319.534,361.604 320.5,363.5C 323.184,360.961 325.851,360.961 328.5,363.5C 335.907,360.916 342.407,356.916 348,351.5C 349.395,352.815 350.395,352.481 351,350.5C 354.894,352.085 355.061,353.085 351.5,353.5C 351.5,354.833 351.5,356.167 351.5,357.5C 349.217,357.608 347.217,358.441 345.5,360C 346.167,360.333 346.833,360.667 347.5,361C 344.436,362.859 341.436,364.692 338.5,366.5C 336.61,366.703 335.11,366.037 334,364.5C 333.255,365.99 332.088,366.99 330.5,367.5C 323.583,369.913 316.583,372.08 309.5,374C 307.028,375.978 304.361,377.478 301.5,378.5C 296.833,378.5 292.167,378.5 287.5,378.5C 287.5,377.167 287.5,375.833 287.5,374.5C 277.554,373.368 268.387,373.368 260,374.5C 259.517,373.552 259.351,372.552 259.5,371.5C 261.451,371.773 262.951,371.107 264,369.5C 271.623,369.565 279.457,369.565 287.5,369.5C 287.343,370.873 287.51,372.207 288,373.5C 288.71,372.027 289.876,371.36 291.5,371.5C 291.5,370.167 291.5,368.833 291.5,367.5C 290.167,367.5 288.833,367.5 287.5,367.5C 287.5,366.167 287.5,364.833 287.5,363.5C 280.825,363.334 274.158,363.5 267.5,364C 264.878,364.923 262.378,366.089 260,367.5C 256.463,366.578 252.796,366.578 249,367.5C 248.055,367.095 247.388,366.428 247,365.5C 243.779,368.728 242.279,368.062 242.5,363.5C 241.5,363.5 240.5,363.5 239.5,363.5C 239.5,362.167 239.5,360.833 239.5,359.5C 240.552,359.649 241.552,359.483 242.5,359C 241.572,357.024 240.405,355.191 239,353.5C 236.393,352.877 233.893,352.21 231.5,351.5C 235.167,351.5 238.833,351.5 242.5,351.5C 253.852,351.627 265.185,351.294 276.5,350.5C 279.85,350.386 283.183,350.053 286.5,349.5C 288.333,349.415 289.666,348.748 290.5,347.5C 290.833,347.5 291.167,347.5 291.5,347.5C 295.534,347.505 299.534,347.838 303.5,348.5C 303.33,347.178 303.663,346.011 304.5,345C 309.759,344.601 314.759,343.434 319.5,341.5 Z"/></g>
<g><path style="opacity:1" fill="#8a591f" d="M 202.5,341.5 C 206.015,342.919 209.681,343.586 213.5,343.5C 218.929,347.21 224.929,349.876 231.5,351.5C 233.893,352.21 236.393,352.877 239,353.5C 240.405,355.191 241.572,357.024 242.5,359C 241.552,359.483 240.552,359.649 239.5,359.5C 239.5,360.833 239.5,362.167 239.5,363.5C 240.5,363.5 241.5,363.5 242.5,363.5C 242.279,368.062 243.779,368.728 247,365.5C 247.388,366.428 248.055,367.095 249,367.5C 252.796,366.578 256.463,366.578 260,367.5C 262.378,366.089 264.878,364.923 267.5,364C 274.158,363.5 280.825,363.334 287.5,363.5C 287.5,364.833 287.5,366.167 287.5,367.5C 288.833,367.5 290.167,367.5 291.5,367.5C 291.5,368.833 291.5,370.167 291.5,371.5C 289.876,371.36 288.71,372.027 288,373.5C 287.51,372.207 287.343,370.873 287.5,369.5C 279.457,369.565 271.623,369.565 264,369.5C 262.951,371.107 261.451,371.773 259.5,371.5C 259.351,372.552 259.517,373.552 260,374.5C 268.387,373.368 277.554,373.368 287.5,374.5C 287.5,375.833 287.5,377.167 287.5,378.5C 285.031,379.317 282.365,379.817 279.5,380C 268.833,380.667 258.167,380.667 247.5,380C 236.54,379.338 226.873,375.671 218.5,369C 211.994,366.957 205.327,366.124 198.5,366.5C 192.689,366.612 188.356,365.945 185.5,364.5C 191.537,364.829 197.537,364.496 203.5,363.5C 204.025,362.808 204.692,362.308 205.5,362C 205.167,361.667 204.833,361.333 204.5,361C 205.973,360.29 206.64,359.124 206.5,357.5C 207.552,357.649 208.552,357.483 209.5,357C 209.459,353.954 208.793,350.788 207.5,347.5C 205.929,348.309 204.262,348.643 202.5,348.5C 202.297,346.61 202.963,345.11 204.5,344C 203.619,343.292 202.953,342.458 202.5,341.5 Z"/></g>
<g><path style="opacity:0.918" fill="#926a44" d="M 67.5,358.5 C 61.21,363.65 54.5433,368.317 47.5,372.5C 41.5961,369.266 36.5961,364.933 32.5,359.5C 33.8734,359.343 35.2068,359.51 36.5,360C 39.7801,363.121 43.4468,365.621 47.5,367.5C 51.8348,365.999 55.8348,363.999 59.5,361.5C 61.5027,359.018 64.1694,358.018 67.5,358.5 Z"/></g>
<g><path style="opacity:0.11" fill="#79494b" d="M 436.5,323.5 C 436.5,323.833 436.5,324.167 436.5,324.5C 436.173,365.572 436.506,406.572 437.5,447.5C 437.167,447.5 436.833,447.5 436.5,447.5C 435.167,406.167 435.167,364.833 436.5,323.5 Z"/></g>
<g><path style="opacity:1" fill="#af843e" d="M 101.5,355.5 C 100.71,356.794 99.7101,357.961 98.5,359C 99.2031,361.884 99.3698,365.051 99,368.5C 97.9887,369.337 96.8221,369.67 95.5,369.5C 97.2719,374.464 98.9386,379.464 100.5,384.5C 103.792,381.854 107.458,380.187 111.5,379.5C 110.215,380.785 108.881,382.119 107.5,383.5C 103.115,384.947 99.1147,386.947 95.5,389.5C 92.9228,389.455 90.9228,390.455 89.5,392.5C 89.6495,391.448 89.4828,390.448 89,389.5C 87.3149,387.983 85.8149,386.316 84.5,384.5C 85.0253,383.808 85.6919,383.308 86.5,383C 86.0999,377.69 85.0999,372.524 83.5,367.5C 84.6477,365.851 85.981,364.351 87.5,363C 86.2068,362.51 84.8734,362.343 83.5,362.5C 87.1822,359.992 91.1822,357.992 95.5,356.5C 97.5648,356.483 99.5648,356.15 101.5,355.5 Z"/></g>
<g><path style="opacity:0.847" fill="#c5a773" d="M 175.5,362.5 C 178.902,362.342 182.236,362.676 185.5,363.5C 185.5,363.833 185.5,364.167 185.5,364.5C 188.356,365.945 192.689,366.612 198.5,366.5C 198.5,366.833 198.5,367.167 198.5,367.5C 159.604,363.072 124.27,372.072 92.5,394.5C 92.5,393.167 92.5,391.833 92.5,390.5C 93.791,390.737 94.791,390.404 95.5,389.5C 99.1147,386.947 103.115,384.947 107.5,383.5C 108.881,382.119 110.215,380.785 111.5,379.5C 115.889,378.597 119.889,376.931 123.5,374.5C 128.682,372.08 134.015,369.913 139.5,368C 151.443,365.754 163.443,363.92 175.5,362.5 Z"/></g>
<g><path style="opacity:1" fill="#b07b47" d="M 394.5,353.5 C 394.047,354.458 393.381,355.292 392.5,356C 393.496,386.426 393.829,416.926 393.5,447.5C 401.167,447.5 408.833,447.5 416.5,447.5C 379.833,448.833 343.167,448.833 306.5,447.5C 321.01,447.829 335.343,447.496 349.5,446.5C 363.5,446.5 377.5,446.5 391.5,446.5C 391.833,416.826 391.5,387.159 390.5,357.5C 387.766,359.371 384.766,360.371 381.5,360.5C 385.666,357.916 390,355.583 394.5,353.5 Z"/></g>
<g><path style="opacity:0.22" fill="#c3a16f" d="M 367.5,368.5 C 365.572,370.474 363.239,371.974 360.5,373C 356.369,374.235 352.369,375.735 348.5,377.5C 344.09,379.184 339.756,381.017 335.5,383C 333.866,383.494 332.199,383.66 330.5,383.5C 342.652,378.264 354.986,373.264 367.5,368.5 Z"/></g>
<g><path style="opacity:0.437" fill="#996f47" d="M 338.5,366.5 C 333.548,369.325 328.214,371.491 322.5,373C 315.508,374.943 308.508,376.776 301.5,378.5C 304.361,377.478 307.028,375.978 309.5,374C 316.583,372.08 323.583,369.913 330.5,367.5C 332.088,366.99 333.255,365.99 334,364.5C 335.11,366.037 336.61,366.703 338.5,366.5 Z"/></g>
<g><path style="opacity:0.851" fill="#8e633a" d="M 198.5,366.5 C 205.327,366.124 211.994,366.957 218.5,369C 226.873,375.671 236.54,379.338 247.5,380C 258.167,380.667 268.833,380.667 279.5,380C 282.365,379.817 285.031,379.317 287.5,378.5C 292.167,378.5 296.833,378.5 301.5,378.5C 283.574,383.145 265.24,384.645 246.5,383C 235.467,381.318 225.134,377.651 215.5,372C 209.747,370.314 204.081,368.814 198.5,367.5C 198.5,367.167 198.5,366.833 198.5,366.5 Z"/></g>
<g><path style="opacity:0.129" fill="#864e53" d="M 436.5,447.5 C 436.833,447.5 437.167,447.5 437.5,447.5C 449.167,447.5 460.833,447.5 472.5,447.5C 472.667,396.166 472.5,344.832 472,293.5C 469.851,292.16 468.684,292.827 468.5,295.5C 467.292,296.234 465.959,296.567 464.5,296.5C 465.834,293.669 468,291.669 471,290.5C 471.945,290.905 472.612,291.572 473,292.5C 473.177,335.189 473.677,377.856 474.5,420.5C 473.553,429.799 473.219,439.132 473.5,448.5C 460.989,448.829 448.655,448.495 436.5,447.5 Z"/></g>
<g><path style="opacity:0.906" fill="#5c2125" d="M 426.5,330.5 C 427.5,330.5 428.5,330.5 429.5,330.5C 429.171,344.677 429.504,358.677 430.5,372.5C 430.5,389.833 430.5,407.167 430.5,424.5C 429.508,431.982 429.175,439.648 429.5,447.5C 427.5,447.5 425.5,447.5 423.5,447.5C 424.919,446.549 426.585,446.216 428.5,446.5C 427.769,408.84 427.269,371.173 427,333.5C 424.691,334.975 422.524,336.642 420.5,338.5C 420.167,338.333 419.833,338.167 419.5,338C 420.71,336.961 421.71,335.794 422.5,334.5C 424.167,333.5 425.5,332.167 426.5,330.5 Z"/></g>
<g><path style="opacity:1" fill="#c28d26" d="M 349.5,446.5 C 348.502,423.673 348.169,400.673 348.5,377.5C 352.369,375.735 356.369,374.235 360.5,373C 363.239,371.974 365.572,370.474 367.5,368.5C 371.833,365.331 376.5,362.664 381.5,360.5C 384.766,360.371 387.766,359.371 390.5,357.5C 391.5,387.159 391.833,416.826 391.5,446.5C 377.5,446.5 363.5,446.5 349.5,446.5 Z"/></g>
<g><path style="opacity:0.889" fill="#d4b89f" d="M 214.5,447.5 C 214.809,427.806 214.476,408.139 213.5,388.5C 213.182,387.353 212.516,386.519 211.5,386C 205.113,384.912 198.779,383.746 192.5,382.5C 191.609,381.89 190.609,381.557 189.5,381.5C 186.316,382.643 182.983,383.309 179.5,383.5C 165.409,382.42 151.409,383.753 137.5,387.5C 137.158,386.662 136.492,386.328 135.5,386.5C 149.399,381.25 163.899,378.917 179,379.5C 191.679,378.641 203.845,380.641 215.5,385.5C 216.851,387.444 217.518,389.611 217.5,392C 216.964,396.912 216.964,401.912 217.5,407C 216.885,419.829 216.385,432.662 216,445.5C 215.722,446.416 215.222,447.082 214.5,447.5 Z"/></g>
<g><path style="opacity:1" fill="#e2c9a5" d="M 179.5,383.5 C 178.85,383.804 178.183,384.137 177.5,384.5C 176.335,394.47 175.502,404.47 175,414.5C 172.667,415.167 170.333,415.833 168,416.5C 159.766,416.393 151.933,416.06 144.5,415.5C 143.833,409.5 143.167,403.5 142.5,397.5C 141.575,396.359 140.741,396.359 140,397.5C 139.667,394.833 139.333,392.167 139,389.5C 138.617,388.944 138.117,388.611 137.5,388.5C 137.5,388.167 137.5,387.833 137.5,387.5C 151.409,383.753 165.409,382.42 179.5,383.5 Z"/></g>
<g><path style="opacity:1" fill="#9c6e2c" d="M 83.5,362.5 C 84.8734,362.343 86.2068,362.51 87.5,363C 85.981,364.351 84.6477,365.851 83.5,367.5C 85.0999,372.524 86.0999,377.69 86.5,383C 85.6919,383.308 85.0253,383.808 84.5,384.5C 85.8149,386.316 87.3149,387.983 89,389.5C 89.4828,390.448 89.6495,391.448 89.5,392.5C 82.9926,398.376 77.6592,397.376 73.5,389.5C 71.9991,388.248 70.3325,387.248 68.5,386.5C 67.6143,385.675 67.281,384.675 67.5,383.5C 66.5,383.5 65.5,383.5 64.5,383.5C 64.5,381.167 64.5,378.833 64.5,376.5C 66.6188,376.532 67.9522,375.532 68.5,373.5C 72.929,369.112 77.929,365.446 83.5,362.5 Z"/></g>
<g><path style="opacity:1" fill="#e3c9a0" d="M 189.5,381.5 C 189.5,403.167 189.5,424.833 189.5,446.5C 172.167,446.5 154.833,446.5 137.5,446.5C 137.5,427.167 137.5,407.833 137.5,388.5C 138.117,388.611 138.617,388.944 139,389.5C 139.333,392.167 139.667,394.833 140,397.5C 140.741,396.359 141.575,396.359 142.5,397.5C 143.167,403.5 143.833,409.5 144.5,415.5C 151.933,416.06 159.766,416.393 168,416.5C 170.333,415.833 172.667,415.167 175,414.5C 175.502,404.47 176.335,394.47 177.5,384.5C 178.183,384.137 178.85,383.804 179.5,383.5C 182.983,383.309 186.316,382.643 189.5,381.5 Z"/></g>
<g><path style="opacity:1" fill="#966b3b" d="M 68.5,373.5 C 67.9522,375.532 66.6188,376.532 64.5,376.5C 64.5,378.833 64.5,381.167 64.5,383.5C 65.5,383.5 66.5,383.5 67.5,383.5C 67.281,384.675 67.6143,385.675 68.5,386.5C 70.3325,387.248 71.9991,388.248 73.5,389.5C 77.6592,397.376 82.9926,398.376 89.5,392.5C 90.9228,390.455 92.9228,389.455 95.5,389.5C 94.791,390.404 93.791,390.737 92.5,390.5C 92.5,391.833 92.5,393.167 92.5,394.5C 90.6505,393.128 89.3172,393.628 88.5,396C 87.1667,396.333 85.8333,396.667 84.5,397C 84.8333,397.333 85.1667,397.667 85.5,398C 84.552,398.483 83.552,398.649 82.5,398.5C 82.719,399.675 82.3857,400.675 81.5,401.5C 79.9246,400.544 78.258,399.877 76.5,399.5C 71.0768,393.576 64.9101,388.576 58,384.5C 57.3333,383.167 57.3333,381.833 58,380.5C 61.1278,377.526 64.6278,375.193 68.5,373.5 Z"/></g>
<g><path style="opacity:0.824" fill="#cfb69c" d="M 134.5,386.5 C 134.5,387.167 134.5,387.833 134.5,388.5C 126.123,392.237 117.79,396.07 109.5,400C 105.825,403.519 101.492,406.019 96.5,407.5C 95.7564,408.991 95.0897,410.491 94.5,412C 90.8333,413.5 87.1667,415 83.5,416.5C 82.5015,426.478 82.1681,436.478 82.5,446.5C 99.8333,446.5 117.167,446.5 134.5,446.5C 135.5,447.833 136.5,447.833 137.5,446.5C 154.833,446.5 172.167,446.5 189.5,446.5C 190.5,447.833 191.5,447.833 192.5,446.5C 199.687,446.175 206.687,446.509 213.5,447.5C 169.336,448.499 125.003,448.832 80.5,448.5C 79.1008,436.811 79.2674,425.144 81,413.5C 83.2033,413.761 85.37,413.261 87.5,412C 101.398,400.382 117.065,391.882 134.5,386.5 Z"/></g>
<g><path style="opacity:0.851" fill="#9a7657" d="M 220.5,389.5 C 220.735,388.903 221.235,388.57 222,388.5C 234.244,393.111 246.744,396.111 259.5,397.5C 254.5,397.5 249.5,397.5 244.5,397.5C 239.438,396.311 234.438,394.978 229.5,393.5C 226.682,391.928 223.682,390.594 220.5,389.5 Z"/></g>
<g><path style="opacity:1" fill="#e1c8a2" d="M 134.5,388.5 C 134.5,407.833 134.5,427.167 134.5,446.5C 117.167,446.5 99.8333,446.5 82.5,446.5C 82.1681,436.478 82.5015,426.478 83.5,416.5C 87.1667,415 90.8333,413.5 94.5,412C 95.0897,410.491 95.7564,408.991 96.5,407.5C 101.492,406.019 105.825,403.519 109.5,400C 117.79,396.07 126.123,392.237 134.5,388.5 Z"/></g>
<g><path style="opacity:1" fill="#8b581f" d="M 229.5,393.5 C 234.438,394.978 239.438,396.311 244.5,397.5C 248.634,398.485 252.968,398.818 257.5,398.5C 257.5,414.5 257.5,430.5 257.5,446.5C 245.833,446.5 234.167,446.5 222.5,446.5C 222.5,428.833 222.5,411.167 222.5,393.5C 224.833,393.5 227.167,393.5 229.5,393.5 Z"/></g>
<g><path style="opacity:0.999" fill="#895720" d="M 348.5,377.5 C 348.169,400.673 348.502,423.673 349.5,446.5C 335.343,447.496 321.01,447.829 306.5,447.5C 305.338,429.005 305.171,410.338 306,391.5C 314.126,388.736 322.293,386.069 330.5,383.5C 332.199,383.66 333.866,383.494 335.5,383C 339.756,381.017 344.09,379.184 348.5,377.5 Z"/></g>
<g><path style="opacity:0.325" fill="#b09271" d="M 92.5,394.5 C 89.2015,396.505 86.2015,399.005 83.5,402C 80.5193,402.838 78.1859,402.005 76.5,399.5C 78.258,399.877 79.9246,400.544 81.5,401.5C 82.3857,400.675 82.719,399.675 82.5,398.5C 83.552,398.649 84.552,398.483 85.5,398C 85.1667,397.667 84.8333,397.333 84.5,397C 85.8333,396.667 87.1667,396.333 88.5,396C 89.3172,393.628 90.6505,393.128 92.5,394.5 Z"/></g>
<g><path style="opacity:1" fill="#e1c497" d="M 192.5,382.5 C 198.779,383.746 205.113,384.912 211.5,386C 212.516,386.519 213.182,387.353 213.5,388.5C 214.476,408.139 214.809,427.806 214.5,447.5C 214.167,447.5 213.833,447.5 213.5,447.5C 206.687,446.509 199.687,446.175 192.5,446.5C 192.5,425.167 192.5,403.833 192.5,382.5 Z"/></g>
<g><path style="opacity:0.222" fill="#bd9962" d="M 302.5,439.5 C 301.751,424.986 300.917,410.319 300,395.5C 294.262,395.089 288.428,395.089 282.5,395.5C 287.657,394.304 292.99,393.304 298.5,392.5C 299.994,392.709 301.161,393.376 302,394.5C 302.5,409.496 302.667,424.496 302.5,439.5 Z"/></g>
<g><path style="opacity:1" fill="#ae8f4c" d="M 134.5,386.5 C 134.833,386.5 135.167,386.5 135.5,386.5C 136.492,386.328 137.158,386.662 137.5,387.5C 137.5,387.833 137.5,388.167 137.5,388.5C 137.5,407.833 137.5,427.167 137.5,446.5C 136.5,447.833 135.5,447.833 134.5,446.5C 134.5,427.167 134.5,407.833 134.5,388.5C 134.5,387.833 134.5,387.167 134.5,386.5 Z"/></g>
<g><path style="opacity:1" fill="#b18c48" d="M 189.5,381.5 C 190.609,381.557 191.609,381.89 192.5,382.5C 192.5,403.833 192.5,425.167 192.5,446.5C 191.5,447.833 190.5,447.833 189.5,446.5C 189.5,424.833 189.5,403.167 189.5,381.5 Z"/></g>
<g><path style="opacity:0.98" fill="#b78535" d="M 302.5,439.5 C 302.706,442.495 302.04,445.162 300.5,447.5C 289.162,447.667 277.828,447.5 266.5,447C 265.309,446.302 264.309,445.469 263.5,444.5C 263.251,429.489 263.084,414.489 263,399.5C 263.976,397.113 265.809,395.946 268.5,396C 273.155,395.501 277.821,395.334 282.5,395.5C 288.428,395.089 294.262,395.089 300,395.5C 300.917,410.319 301.751,424.986 302.5,439.5 Z"/></g>
<g><path style="opacity:1" fill="#c18e27" d="M 287.5,396.5 C 291.106,396.211 294.606,396.544 298,397.5C 298.667,409.5 298.667,421.5 298,433.5C 298.314,438.502 296.481,442.335 292.5,445C 284.841,445.5 277.174,445.666 269.5,445.5C 268.371,430.529 267.871,415.529 268,400.5C 274.802,400.126 281.302,398.793 287.5,396.5 Z"/></g>
<g><path style="opacity:0.09" fill="#c3a1a1" d="M 430.5,424.5 C 430.5,432.5 430.5,440.5 430.5,448.5C 426.298,448.817 422.298,448.483 418.5,447.5C 420.167,447.5 421.833,447.5 423.5,447.5C 425.5,447.5 427.5,447.5 429.5,447.5C 429.175,439.648 429.508,431.982 430.5,424.5 Z"/></g>
<g><path style="opacity:0.295" fill="#83542d" d="M 220.5,389.5 C 223.682,390.594 226.682,391.928 229.5,393.5C 227.167,393.5 224.833,393.5 222.5,393.5C 222.5,411.167 222.5,428.833 222.5,446.5C 234.167,446.5 245.833,446.5 257.5,446.5C 257.5,430.5 257.5,414.5 257.5,398.5C 252.968,398.818 248.634,398.485 244.5,397.5C 249.5,397.5 254.5,397.5 259.5,397.5C 260.496,412.658 260.83,427.991 260.5,443.5C 258.824,444.183 258.157,445.517 258.5,447.5C 245.833,447.5 233.167,447.5 220.5,447.5C 219.167,428.167 219.167,408.833 220.5,389.5 Z"/></g>
<g><path style="opacity:0.304" fill="#53131a" d="M 437.5,447.5 C 436.506,406.572 436.173,365.572 436.5,324.5C 437.499,364.663 437.832,404.997 437.5,445.5C 448.52,445.582 459.52,445.582 470.5,445.5C 471.926,395.155 471.76,344.822 470,294.5C 469.617,295.056 469.117,295.389 468.5,295.5C 468.684,292.827 469.851,292.16 472,293.5C 472.5,344.832 472.667,396.166 472.5,447.5C 460.833,447.5 449.167,447.5 437.5,447.5 Z"/></g>
<g><path style="opacity:0.035" fill="#ac8e6c" d="M 260.5,443.5 C 260.714,445.144 260.38,446.644 259.5,448C 246.327,448.827 233.327,448.66 220.5,447.5C 233.167,447.5 245.833,447.5 258.5,447.5C 258.157,445.517 258.824,444.183 260.5,443.5 Z"/></g>
<g><path style="opacity:0.043" fill="#c2a372" d="M 263.5,444.5 C 264.309,445.469 265.309,446.302 266.5,447C 277.828,447.5 289.162,447.667 300.5,447.5C 289.007,448.659 277.341,448.826 265.5,448C 264.027,447.29 263.36,446.124 263.5,444.5 Z"/></g>
</svg>
